<svg width="349" height="357" viewBox="0 0 349 357" fill="none" xmlns="http://www.w3.org/2000/svg">
<path d="M65.6678 104.319C65.6678 104.319 49.8123 110.591 47.4806 125.827C45.1489 141.062 81.1783 185.691 81.1783 185.691L192.288 125.817L157.159 64.1673L65.6678 104.319Z" fill="#C7DCF9"/>
<path d="M90.2345 118.72C90.2345 118.72 78.5434 130.723 74.9572 144.005C71.3711 157.286 70.9094 181.004 71.5063 189.888C88.9475 206.028 157.886 192.504 157.886 192.504L224.321 114.355C224.321 114.355 213.059 92.9731 207.342 87.1112C201.625 81.2493 183.092 73.9604 161.71 82.5644C149.161 100.374 90.2345 118.72 90.2345 118.72Z" fill="#E1ECFF"/>
<g style="mix-blend-mode:multiply">
<path d="M85.0161 124.927C85.0161 124.927 110.809 133.204 139.844 121.989C168.878 110.773 174.138 79.1834 174.138 79.1834L161.696 82.5691L90.2345 118.72L85.0161 124.927Z" fill="#E1ECFF"/>
</g>
<path d="M190.017 221.827C190.017 221.827 222.628 222.037 231.792 224.378C240.955 226.719 265.21 281.612 275.245 286.868C285.281 292.124 293.806 283.394 304.863 276.912C315.92 270.429 326.053 262.586 326.37 259.312C326.687 256.038 321.991 242.957 317.929 240.318C313.868 237.678 302.074 237.492 295.783 241.521C286.54 216.339 273.399 179.614 261.348 174.559C249.298 169.504 212.779 167.098 212.779 167.098L190.017 221.827Z" fill="#E1ECFF"/>
<g style="mix-blend-mode:multiply" opacity="0.51">
<path d="M224.321 197.792C224.321 197.792 250.874 200.698 258.21 210.579C265.546 220.461 280.081 280.927 296.352 282.358C296.613 301.945 262.915 309.019 262.915 309.019L182.141 219.267L224.321 197.792Z" fill="#E1ECFF"/>
</g>
<path d="M102.401 216.875C102.401 216.875 122.454 258.934 140.641 270.406C158.828 281.878 191.78 280.95 200.869 288.463C209.958 295.976 208.037 332.066 217.121 341.626C226.205 351.186 238.988 357.043 250.935 355.966C262.883 354.888 272.443 349.157 272.564 343.78C272.685 338.403 272.205 333.74 266.59 330.872C260.976 328.004 253.066 325.616 252.726 322.272C252.386 318.929 246.034 268.023 243.399 254.187C240.764 240.351 220.301 221.105 193.93 211.409C168.957 190.499 130.601 199.457 130.601 199.457L102.401 216.875Z" fill="#E1ECFF"/>
<g style="mix-blend-mode:multiply">
<path d="M108.235 228.128C108.235 228.128 131.249 229.303 151.917 220.223C147.967 199.191 135.782 192.98 135.782 192.98L102.401 216.875L108.235 228.128Z" fill="#E1ECFF"/>
</g>
<path d="M140.081 8.48631C122.057 -1.16226 84.2839 -4.41731 60.9669 24.5004C37.6499 53.4182 49.2711 83.4085 59.0689 97.3707C69.3284 112.023 104.593 134.417 142.231 113.385C179.87 92.3529 183.815 31.9059 140.081 8.48631Z" fill="#E1ECFF"/>
<path d="M136.98 26.1699C152.99 29.9939 163.389 52.4575 158.012 73.9651C152.635 95.4727 134.112 109.934 113.323 110.05C92.5335 110.167 71.8607 95.9716 71.9726 69.4276C72.0845 43.9188 102.215 17.869 136.98 26.1699Z" fill="#1C3177"/>
<g style="mix-blend-mode:multiply">
<path d="M90.8545 194.174C111.714 184.492 96.1102 162.388 116.904 157.361C144.32 161.259 151.903 159.86 151.903 159.86C151.903 159.86 99.4538 205.925 90.8545 194.174Z" fill="#E1ECFF"/>
</g>
<path d="M108.235 135.051L142.95 224.378L192.06 223.208L236.987 194.77L250.371 154.143L217.872 56.6406L202.096 102.286L161.23 134.785L108.235 135.051Z" fill="#FF97C9"/>
<path d="M90.8545 194.174C102.364 193.241 108.226 185.747 111.714 182.422C113.491 180.724 113.136 179.237 112.241 174.34C111.346 169.444 114.451 164.421 118.695 162.271C121.027 168.544 123.89 169.733 126.101 169.439C128.311 169.145 130.582 155.938 137.81 156.055C145.039 156.172 150.835 165.736 151.8 170.511C152.766 175.287 148.098 188.909 142.241 198.469C136.383 208.029 128.12 219.864 109.517 223.567C90.9152 227.27 80.3386 217.77 74.2435 205.762C72.187 201.71 71.4455 196.109 71.5108 189.869C71.5108 189.869 75.6752 195.367 90.8545 194.174Z" fill="#E1ECFF"/>
<path d="M229.064 90.2217C229.064 90.2217 231.279 97.4267 229.787 100.234C228.295 103.041 226.261 105.364 224.769 108.959C223.277 112.555 225.487 126.107 232.058 128.434C238.629 130.761 244.066 124.67 245.801 121.145C247.536 117.619 246.575 108.362 244.006 101.908C241.436 95.4541 236.605 89.7181 229.064 90.2217Z" fill="#E1ECFF"/>
<path d="M236.619 0.703103L238.092 3.68768C238.181 3.86853 238.312 4.02508 238.474 4.14374C238.637 4.2624 238.826 4.33957 239.025 4.36854L242.322 4.83488C242.553 4.86788 242.769 4.96486 242.947 5.11478C243.126 5.26471 243.258 5.46158 243.33 5.68304C243.402 5.9045 243.41 6.14169 243.354 6.36765C243.298 6.59362 243.18 6.79931 243.012 6.96138L240.629 9.29308C240.485 9.43351 240.376 9.60712 240.314 9.7989C240.251 9.99068 240.236 10.1948 240.27 10.3936L240.83 13.658C240.87 13.887 240.844 14.1224 240.757 14.3377C240.67 14.553 240.524 14.7396 240.336 14.8765C240.149 15.0133 239.926 15.0948 239.695 15.1119C239.463 15.129 239.231 15.0809 239.025 14.9731L236.073 13.4249C235.895 13.3305 235.697 13.2812 235.495 13.2812C235.293 13.2812 235.095 13.3305 234.917 13.4249L231.965 14.9731C231.759 15.0822 231.526 15.1313 231.294 15.1149C231.061 15.0984 230.838 15.0171 230.65 14.8801C230.461 14.7431 230.315 14.5559 230.228 14.3398C230.14 14.1238 230.115 13.8876 230.155 13.658L230.72 10.3936C230.754 10.1948 230.739 9.99068 230.676 9.7989C230.614 9.60712 230.505 9.43351 230.361 9.29308L227.978 6.96138C227.81 6.79931 227.692 6.59362 227.636 6.36765C227.58 6.14169 227.588 5.9045 227.66 5.68304C227.732 5.46158 227.864 5.26471 228.043 5.11478C228.221 4.96486 228.437 4.86788 228.668 4.83488L231.965 4.36854C232.164 4.33957 232.353 4.2624 232.516 4.14374C232.678 4.02508 232.809 3.86853 232.897 3.68768L234.371 0.703103C234.474 0.492302 234.633 0.314582 234.832 0.190255C235.031 0.0659274 235.261 0 235.495 0C235.729 0 235.959 0.0659274 236.158 0.190255C236.357 0.314582 236.516 0.492302 236.619 0.703103Z" fill="#FEC272"/>
<path d="M78.8463 316.55L80.0821 319.055C80.1558 319.207 80.2658 319.338 80.4025 319.437C80.5392 319.537 80.6982 319.601 80.8656 319.624L83.631 320.025C83.8237 320.053 84.0048 320.134 84.1536 320.26C84.3025 320.386 84.4133 320.55 84.4734 320.736C84.5336 320.921 84.5407 321.12 84.494 321.309C84.4473 321.498 84.3487 321.67 84.2092 321.806L82.2086 323.755C82.0858 323.874 81.9942 324.022 81.9421 324.184C81.8901 324.347 81.8791 324.52 81.9102 324.688L82.3765 327.439C82.4085 327.631 82.3865 327.829 82.3129 328.009C82.2393 328.189 82.117 328.345 81.9597 328.46C81.8025 328.574 81.6164 328.643 81.4224 328.658C81.2283 328.673 81.0339 328.634 80.8609 328.545L78.3893 327.244C78.2395 327.166 78.0732 327.125 77.9043 327.125C77.7354 327.125 77.569 327.166 77.4193 327.244L74.957 328.535C74.7842 328.626 74.5892 328.667 74.3944 328.653C74.1995 328.639 74.0126 328.57 73.8547 328.455C73.6969 328.34 73.5745 328.183 73.5014 328.002C73.4283 327.821 73.4076 327.623 73.4414 327.43L73.9077 324.679C73.9366 324.51 73.9241 324.337 73.8713 324.175C73.8185 324.013 73.727 323.865 73.6046 323.746L71.6087 321.797C71.4692 321.661 71.3706 321.488 71.3239 321.299C71.2772 321.11 71.2844 320.912 71.3445 320.726C71.4046 320.541 71.5154 320.376 71.6643 320.251C71.8132 320.125 71.9942 320.044 72.187 320.015L74.9477 319.614C75.1155 319.591 75.275 319.527 75.4123 319.428C75.5497 319.328 75.6607 319.197 75.7358 319.045L76.9716 316.541C77.0586 316.366 77.1928 316.22 77.359 316.117C77.5252 316.015 77.7167 315.961 77.9118 315.962C78.107 315.963 78.298 316.019 78.4632 316.123C78.6283 316.227 78.761 316.375 78.8463 316.55Z" fill="#FEC272"/>
<g style="mix-blend-mode:soft-light" opacity="0.48">
<path d="M123.006 52.9837C134.483 50.4541 143.061 45.1126 142.166 41.0532C141.271 36.9937 131.242 35.7535 119.766 38.2831C108.289 40.8127 99.7107 46.1542 100.605 50.2137C101.5 54.2731 111.529 55.5133 123.006 52.9837Z" fill="white"/>
</g>
<g style="mix-blend-mode:multiply">
<path d="M149.143 183.905C149.143 183.905 135.941 172.106 133.548 172.106C131.156 172.106 124.786 181.433 126.222 183.905C127.658 186.376 135.036 194.472 143.136 196.962C145.762 191.954 149.143 183.905 149.143 183.905Z" fill="#E1ECFF"/>
</g>
<g style="mix-blend-mode:multiply" opacity="0.5">
<path d="M161.23 134.785L192.06 223.208L236.987 194.77L202.095 102.286L161.23 134.785Z" fill="#FF97C9"/>
</g>
<g style="mix-blend-mode:multiply">
<path d="M246.043 271.078C241.423 274.906 236.23 277.986 230.654 280.204C225.427 282.219 223.659 286.341 225.24 293.905C226.821 301.469 227.707 313.263 230.971 316.369C234.236 319.474 245.465 317.824 251.285 310.605C249.462 296.381 246.043 271.078 246.043 271.078Z" fill="#E1ECFF"/>
</g>
<g style="mix-blend-mode:multiply">
<path d="M276.472 193.959C276.472 193.959 269.943 196.804 270.564 201.341C271.184 205.879 277.852 227.811 280.483 229.788C283.113 231.765 290.896 228.258 290.896 228.258C282.903 205.613 276.472 193.959 276.472 193.959Z" fill="#E1ECFF"/>
</g>
<path d="M0.958433 246.441C-4.23193 235.678 12.6822 224.159 27.0735 224.989C41.4647 225.819 47.5131 239.105 52.6102 244.063C63.2568 254.406 62.921 264.526 55.5482 268.877C48.1754 273.228 7.82762 260.678 0.958433 246.441Z" fill="#99ADF9"/>
<path d="M291.283 79.7011C287.086 76.0263 291.405 58.7531 301.319 54.7099C311.233 50.6668 323.545 55.0877 326.175 62.0175C328.805 68.9473 299.887 87.2278 291.283 79.7011Z" fill="#99ADF9"/>
<path d="M339.867 88.9439C337.717 92.0078 336.285 100.733 340.823 102.286C345.36 103.839 348.793 94.8618 347.198 90.1891C345.603 85.5163 341.303 86.8967 339.867 88.9439Z" fill="#99ADF9"/>
<path opacity="0.44" d="M343.13 18.1396C339.745 19.7345 334.163 26.5897 337.334 30.1945C340.505 33.7993 347.934 27.7089 348.871 22.8636C349.808 18.0183 345.392 17.0763 343.13 18.1396Z" fill="#99ADF9"/>
<path opacity="0.44" d="M24.7696 291.727C21.841 289.396 13.2277 287.414 11.3903 291.848C9.55294 296.283 18.3015 300.243 23.0488 298.965C27.7962 297.687 26.7189 293.285 24.7696 291.727Z" fill="#99ADF9"/>
<g style="mix-blend-mode:multiply" opacity="0.64">
<path d="M50.0595 241.111C44.8505 242.09 45.6899 246.749 47.3594 250.969C49.0289 255.189 54.9048 256.393 59.0505 252.536C56.3597 246.133 50.0595 241.111 50.0595 241.111Z" fill="#99ADF9"/>
</g>
<g style="mix-blend-mode:multiply" opacity="0.64">
<path d="M20.116 234.083C16.3853 234.498 13.3448 239.898 15.9749 244.277C18.6051 248.656 23.6182 251.846 26.4862 250.652C29.3542 249.458 29.8346 243.004 27.764 238.863C25.6935 234.722 23.7022 233.682 20.116 234.083Z" fill="#99ADF9"/>
</g>
<g style="mix-blend-mode:multiply" opacity="0.64">
<path d="M314.535 58.4313C312.487 59.0842 310.412 61.2993 310.594 63.6916C310.776 66.0839 312.865 68.1731 315.132 67.8887C317.398 67.6042 319.329 63.9434 318.862 61.3133C318.396 58.6831 316.097 57.937 314.535 58.4313Z" fill="#99ADF9"/>
</g>
<g style="mix-blend-mode:multiply" opacity="0.64">
<path d="M292.855 63.0947C292.855 63.0947 295.653 65.8928 295.186 69.0685C294.72 72.2443 289.898 71.9505 289.898 71.9505C289.898 71.9505 290.616 66.5363 292.855 63.0947Z" fill="#99ADF9"/>
</g>
</svg>
