<svg width="29" height="28" viewBox="0 0 29 28" fill="none" xmlns="http://www.w3.org/2000/svg">
<path d="M26.6832 13.2945C23.9984 7.83398 19.9401 5.08594 14.4998 5.08594C9.0566 5.08594 5.00113 7.83398 2.31637 13.2973C2.20868 13.5174 2.15283 13.7579 2.15283 14.0014C2.15283 14.2448 2.20868 14.4853 2.31637 14.7055C5.00113 20.166 9.05943 22.9141 14.4998 22.9141C19.9429 22.9141 23.9984 20.166 26.6832 14.7027C26.9012 14.2598 26.9012 13.7457 26.6832 13.2945V13.2945ZM14.4998 20.9453C9.9317 20.9453 6.58707 18.7086 4.22799 14C6.58707 9.29141 9.9317 7.05469 14.4998 7.05469C19.0678 7.05469 22.4125 9.29141 24.7715 14C22.4153 18.7086 19.0707 20.9453 14.4998 20.9453ZM14.3865 9.1875C11.6338 9.1875 9.40211 11.3422 9.40211 14C9.40211 16.6578 11.6338 18.8125 14.3865 18.8125C17.1392 18.8125 19.3709 16.6578 19.3709 14C19.3709 11.3422 17.1392 9.1875 14.3865 9.1875ZM14.3865 17.0625C12.6335 17.0625 11.2146 15.6926 11.2146 14C11.2146 12.3074 12.6335 10.9375 14.3865 10.9375C16.1395 10.9375 17.5584 12.3074 17.5584 14C17.5584 15.6926 16.1395 17.0625 14.3865 17.0625Z" fill="#F63D8F"/>
</svg>
