<svg width="28" height="28" viewBox="0 0 28 28" fill="none" xmlns="http://www.w3.org/2000/svg">
<path d="M19.592 15.8667C19.8154 15.2698 19.9287 14.6373 19.9264 14C19.9264 12.5849 19.3643 11.2278 18.3637 10.2272C17.3631 9.22658 16.006 8.66444 14.5909 8.66444C13.9614 8.66518 13.3372 8.77844 12.7476 8.99889L13.9998 10.29C14.1901 10.2595 14.3826 10.2439 14.5753 10.2433C15.5759 10.2412 16.5366 10.6351 17.2478 11.339C17.9589 12.0428 18.3627 12.9995 18.3709 14C18.3703 14.1928 18.3546 14.3852 18.3242 14.5756L19.592 15.8667Z" fill="black" fill-opacity="0.1"/>
<path d="M26.67 13.6344C24.0489 8.78889 19.4523 5.85667 14.3656 5.85667C12.9806 5.85992 11.605 6.08307 10.29 6.51778L11.5423 7.77778C12.4646 7.53941 13.413 7.41662 14.3656 7.41222C18.7445 7.41222 22.7267 9.85444 25.0989 13.9689C24.2287 15.4954 23.0751 16.8417 21.7 17.9356L22.8045 19.04C24.3959 17.7562 25.7175 16.1701 26.6934 14.3733L26.8956 14L26.67 13.6344Z" fill="black" fill-opacity="0.1"/>
<path d="M3.78774 4.49556L7.25663 7.96444C5.06401 9.3762 3.272 11.3289 2.0533 13.6344L1.85107 14L2.0533 14.3733C4.67441 19.2189 9.27107 22.1511 14.3577 22.1511C16.3431 22.1507 18.3027 21.7014 20.09 20.8367L23.9789 24.7256L25.34 23.5589L5.11774 3.33667L3.78774 4.49556ZM11.3711 12.0789L16.5433 17.2511C15.9589 17.6128 15.2861 17.8066 14.5989 17.8111C14.0995 17.8111 13.605 17.7124 13.1439 17.5206C12.6828 17.3288 12.2642 17.0477 11.9122 16.6935C11.5602 16.3393 11.2817 15.9189 11.0927 15.4567C10.9037 14.9944 10.808 14.4994 10.8111 14C10.8198 13.3207 11.0134 12.6565 11.3711 12.0789ZM10.2433 10.9511C9.51563 11.9773 9.17457 13.2279 9.2805 14.4814C9.38642 15.735 9.9325 16.9106 10.822 17.8001C11.7116 18.6897 12.8872 19.2358 14.1407 19.3417C15.3943 19.4476 16.6449 19.1065 17.6711 18.3789L18.9155 19.6233C17.4749 20.2391 15.9244 20.5566 14.3577 20.5567C9.97885 20.5567 5.99663 18.1144 3.62441 14C4.76285 11.9842 6.40241 10.2964 8.38441 9.1L10.2433 10.9511Z" fill="black" fill-opacity="0.1"/>
</svg>
