<svg width="31" height="31" viewBox="0 0 31 31" fill="none" xmlns="http://www.w3.org/2000/svg">
<path d="M25.1875 13.5625H23.25V9.6875C23.25 7.63207 22.4335 5.66083 20.9801 4.20742C19.5267 2.75402 17.5554 1.9375 15.5 1.9375C13.4446 1.9375 11.4733 2.75402 10.0199 4.20742C8.56651 5.66083 7.75 7.63207 7.75 9.6875V13.5625H5.8125L3.875 15.5V27.125L5.8125 29.0625H25.1875L27.125 27.125V15.5L25.1875 13.5625ZM9.6875 9.6875C9.6875 8.14593 10.2999 6.6675 11.3899 5.57744C12.48 4.48739 13.9584 3.875 15.5 3.875C17.0416 3.875 18.52 4.48739 19.6101 5.57744C20.7001 6.6675 21.3125 8.14593 21.3125 9.6875V13.5625H9.6875V9.6875ZM25.1875 27.125H5.8125V15.5H25.1875V27.125Z" fill="black" fill-opacity="0.1"/>
</svg>
